<svg width="18" height="18" viewBox="0 0 18 18" fill="none" xmlns="http://www.w3.org/2000/svg">
<path d="M9.00033 11.5L12.3337 8.16663H5.66699L9.00033 11.5ZM9.00033 17.3333C7.84755 17.3333 6.76421 17.1144 5.75033 16.6766C4.73644 16.2394 3.85449 15.6458 3.10449 14.8958C2.35449 14.1458 1.76088 13.2638 1.32366 12.25C0.885881 11.2361 0.666992 10.1527 0.666992 8.99996C0.666992 7.84718 0.885881 6.76385 1.32366 5.74996C1.76088 4.73607 2.35449 3.85413 3.10449 3.10413C3.85449 2.35413 4.73644 1.76024 5.75033 1.32246C6.76421 0.885237 7.84755 0.666626 9.00033 0.666626C10.1531 0.666626 11.2364 0.885237 12.2503 1.32246C13.2642 1.76024 14.1462 2.35413 14.8962 3.10413C15.6462 3.85413 16.2398 4.73607 16.677 5.74996C17.1148 6.76385 17.3337 7.84718 17.3337 8.99996C17.3337 10.1527 17.1148 11.2361 16.677 12.25C16.2398 13.2638 15.6462 14.1458 14.8962 14.8958C14.1462 15.6458 13.2642 16.2394 12.2503 16.6766C11.2364 17.1144 10.1531 17.3333 9.00033 17.3333ZM9.00033 15.6666C10.8614 15.6666 12.4378 15.0208 13.7295 13.7291C15.0212 12.4375 15.667 10.8611 15.667 8.99996C15.667 7.13885 15.0212 5.56246 13.7295 4.27079C12.4378 2.97913 10.8614 2.33329 9.00033 2.33329C7.13921 2.33329 5.56283 2.97913 4.27116 4.27079C2.97949 5.56246 2.33366 7.13885 2.33366 8.99996C2.33366 10.8611 2.97949 12.4375 4.27116 13.7291C5.56283 15.0208 7.13921 15.6666 9.00033 15.6666Z" fill="black"/>
</svg>
